<?xml version="1.0" encoding="utf-8"?>
<!-- Generator: Adobe Illustrator 25.2.0, SVG Export Plug-In . SVG Version: 6.00 Build 0)  -->
<svg version="1.1" id="Layer_1" xmlns="http://www.w3.org/2000/svg" xmlns:xlink="http://www.w3.org/1999/xlink" x="0px" y="0px"
	 viewBox="0 0 200 200" style="enable-background:new 0 0 200 200;" xml:space="preserve">
<style type="text/css">
	.st0{fill:#53A7D9;}
</style>
<path class="st0" d="M185.88,173.15l-10.66-18.46c11.97-16.04,18.53-35.7,18.53-55.74c0-51.45-41.86-93.3-93.31-93.3
	C49,5.64,7.15,47.5,7.15,98.95c0,19.93,6.16,38.8,17.84,54.81l-11.23,19.45c-5.28,0.96-9.29,5.59-9.29,11.14
	c0,6.25,5.08,11.33,11.33,11.33c3.11,0,6.02-1.26,8.12-3.43h68.42c2.1,2.17,5,3.43,8.12,3.43s6.02-1.26,8.12-3.43h67.53
	c2.1,2.17,5,3.43,8.12,3.43c6.25,0,11.33-5.08,11.33-11.33C195.54,178.67,191.34,173.96,185.88,173.15z M100.45,173.03
	c-3.44,0-6.59,1.54-8.7,4.08c-18.86-2.07-36.05-10.77-49-24.79l57.08-98.87l57.55,99.68c-12.86,13.53-29.77,21.94-48.24,23.97
	C107.04,174.57,103.89,173.03,100.45,173.03z M100.45,20.31c43.36,0,78.64,35.28,78.64,78.64c0,14.94-4.12,29.2-11.98,41.68
	L106.19,35.11c-1.31-2.26-3.74-3.67-6.35-3.67s-5.04,1.4-6.35,3.67l-60.33,104.5c-7.44-12.24-11.34-26.15-11.34-40.66
	C21.81,55.58,57.09,20.31,100.45,20.31z M35.14,165.51c4.63,4.55,9.72,8.59,15.15,12.07H28.17L35.14,165.51z M150.61,177.58
	c5.13-3.28,9.95-7.07,14.37-11.31l6.53,11.31H150.61z"/>
<path class="st0" d="M430.55,181.54c-0.45,0-0.88,0.05-1.3,0.13l-14.77-25.57c13.09-16.23,20.94-36.86,20.94-59.28
	c0-52.17-42.44-94.61-94.61-94.61c-52.17,0-94.61,42.44-94.61,94.61c0,21.99,7.54,42.25,20.17,58.33l-15.29,26.48
	c-0.32-0.05-0.65-0.08-0.98-0.08c-3.74,0-6.78,3.04-6.78,6.78s3.04,6.78,6.78,6.78c2.62,0,4.89-1.5,6.02-3.68h78.67
	c1.13,2.18,3.4,3.68,6.02,3.68s4.89-1.5,6.02-3.68h77.7c1.13,2.18,3.4,3.68,6.02,3.68c3.74,0,6.78-3.04,6.78-6.78
	S434.29,181.54,430.55,181.54z M425.04,184.38c-0.44,0.61-0.78,1.3-1,2.04h-52.87c15.47-5.26,29.14-14.41,39.86-26.29L425.04,184.38
	z M340.81,181.54c-2.99,0-5.54,1.95-6.43,4.65c-24.78-1.77-46.8-13.65-61.95-31.54l67.73-117.31l68.26,118.23
	c-15.12,17.37-36.82,28.88-61.17,30.62C346.34,183.49,343.8,181.54,340.81,181.54z M251.2,96.81c0-49.41,40.2-89.61,89.61-89.61
	c49.41,0,89.61,40.2,89.61,89.61c0,20.54-6.95,39.49-18.62,54.62L342.32,31.09c-0.45-0.77-1.27-1.25-2.17-1.25s-1.72,0.48-2.17,1.25
	l-68.91,119.36C257.85,135.49,251.2,116.91,251.2,96.81z M310.44,186.42h-53.83c-0.25-0.85-0.66-1.63-1.19-2.3l14.37-24.88
	C280.61,171.54,294.59,181.03,310.44,186.42z"/>
</svg>
